# xmcd CD database file
#
# Track frame offsets:
#	150
#	21957
#	46900
#	62632
#	86997
#	108710
#	133027
#	153310
#	168400
#	186020
#	212927
#	237687
#
# Disc length: 3360 seconds
#
# Revision: 0
# Processed by: cddbd v1.4PL0 Copyright (c) Steve Scherf et al.
# Submitted via: Feurio! 1.65 - http://www.feurio.com
#
DISCID=ae0d1e0c
DTITLE=Ace Moreland - Keepin' A Secret
DYEAR=1996
DGENRE=Blues Rock
TTITLE0=No, No, Henrietta
TTITLE1=Corner Of My Eye
TTITLE2=Bring Out The Boogie
TTITLE3=Law Of The Jungle
TTITLE4=I Don't Wanna Have The Blues
TTITLE5=Don't Let The Devil Ride
TTITLE6=Throwin' Our Love Away
TTITLE7=Grip Of The Grape
TTITLE8=Keepin' A Secret
TTITLE9=Death Letter Blues
TTITLE10=Birds Of A Feather
TTITLE11=Devils In The Head
EXTD=King Snake Records, 1996
EXTT0=
EXTT1=
EXTT2=
EXTT3=
EXTT4=
EXTT5=
EXTT6=
EXTT7=
EXTT8=
EXTT9=
EXTT10=
EXTT11=
PLAYORDER=
